<svg xmlns="http://www.w3.org/2000/svg" viewBox="0 0 32 32" width="32" height="32" shape-rendering="crispEdges">
  <title>Sortify</title>
  <g fill="#1a1030"><!-- outline -->
    <rect x="18" y="5" width="5" height="1"/>
    <rect x="15" y="6" width="3" height="1"/>
    <rect x="23" y="6" width="2" height="1"/>
    <rect x="14" y="7" width="1" height="1"/>
    <rect x="25" y="7" width="1" height="1"/>
    <rect x="8" y="8" width="6" height="1"/>
    <rect x="26" y="8" width="1" height="1"/>
    <rect x="7" y="9" width="1" height="1"/>
    <rect x="27" y="9" width="1" height="1"/>
    <rect x="5" y="10" width="2" height="1"/>
    <rect x="28" y="10" width="1" height="1"/>
    <rect x="4" y="11" width="1" height="1"/>
    <rect x="28" y="11" width="1" height="1"/>
    <rect x="4" y="12" width="1" height="1"/>
    <rect x="29" y="12" width="1" height="1"/>
    <rect x="3" y="13" width="1" height="1"/>
    <rect x="29" y="13" width="1" height="1"/>
    <rect x="3" y="14" width="1" height="1"/>
    <rect x="29" y="14" width="1" height="1"/>
    <rect x="2" y="15" width="1" height="1"/>
    <rect x="29" y="15" width="1" height="1"/>
    <rect x="2" y="16" width="1" height="1"/>
    <rect x="29" y="16" width="1" height="1"/>
    <rect x="2" y="17" width="1" height="1"/>
    <rect x="28" y="17" width="1" height="1"/>
    <rect x="2" y="18" width="1" height="1"/>
    <rect x="28" y="18" width="1" height="1"/>
    <rect x="2" y="19" width="1" height="1"/>
    <rect x="27" y="19" width="1" height="1"/>
    <rect x="3" y="20" width="1" height="1"/>
    <rect x="27" y="20" width="1" height="1"/>
    <rect x="3" y="21" width="1" height="1"/>
    <rect x="25" y="21" width="2" height="1"/>
    <rect x="4" y="22" width="1" height="1"/>
    <rect x="24" y="22" width="1" height="1"/>
    <rect x="5" y="23" width="1" height="1"/>
    <rect x="18" y="23" width="6" height="1"/>
    <rect x="6" y="24" width="1" height="1"/>
    <rect x="17" y="24" width="1" height="1"/>
    <rect x="7" y="25" width="2" height="1"/>
    <rect x="14" y="25" width="3" height="1"/>
    <rect x="9" y="26" width="5" height="1"/>
  </g>
  <g fill="#346ceb"><!-- left playlist -->
    <rect x="8" y="9" width="5" height="1"/>
    <rect x="7" y="10" width="6" height="1"/>
    <rect x="5" y="11" width="7" height="1"/>
    <rect x="5" y="12" width="7" height="1"/>
    <rect x="4" y="13" width="8" height="1"/>
    <rect x="4" y="14" width="8" height="1"/>
    <rect x="3" y="15" width="9" height="1"/>
    <rect x="3" y="16" width="9" height="1"/>
    <rect x="3" y="17" width="9" height="1"/>
    <rect x="3" y="18" width="9" height="1"/>
    <rect x="3" y="19" width="10" height="1"/>
    <rect x="4" y="20" width="10" height="1"/>
    <rect x="4" y="21" width="11" height="1"/>
    <rect x="5" y="22" width="12" height="1"/>
    <rect x="6" y="23" width="12" height="1"/>
    <rect x="7" y="24" width="10" height="1"/>
    <rect x="9" y="25" width="5" height="1"/>
  </g>
  <g fill="#e83e48"><!-- right playlist -->
    <rect x="18" y="6" width="5" height="1"/>
    <rect x="15" y="7" width="10" height="1"/>
    <rect x="14" y="8" width="12" height="1"/>
    <rect x="15" y="9" width="12" height="1"/>
    <rect x="17" y="10" width="11" height="1"/>
    <rect x="18" y="11" width="10" height="1"/>
    <rect x="19" y="12" width="10" height="1"/>
    <rect x="20" y="13" width="9" height="1"/>
    <rect x="20" y="14" width="9" height="1"/>
    <rect x="20" y="15" width="9" height="1"/>
    <rect x="20" y="16" width="9" height="1"/>
    <rect x="20" y="17" width="8" height="1"/>
    <rect x="20" y="18" width="8" height="1"/>
    <rect x="20" y="19" width="7" height="1"/>
    <rect x="20" y="20" width="7" height="1"/>
    <rect x="19" y="21" width="6" height="1"/>
    <rect x="19" y="22" width="5" height="1"/>
  </g>
  <g fill="#8a40c4"><!-- shared songs -->
    <rect x="14" y="10" width="1" height="1"/>
    <rect x="13" y="11" width="4" height="1"/>
    <rect x="13" y="12" width="5" height="1"/>
    <rect x="13" y="13" width="3" height="1"/>
    <rect x="17" y="13" width="2" height="1"/>
    <rect x="13" y="14" width="3" height="1"/>
    <rect x="18" y="14" width="1" height="1"/>
    <rect x="13" y="15" width="3" height="1"/>
    <rect x="17" y="15" width="1" height="1"/>
    <rect x="13" y="16" width="3" height="1"/>
    <rect x="17" y="16" width="2" height="1"/>
    <rect x="13" y="17" width="3" height="1"/>
    <rect x="17" y="17" width="2" height="1"/>
    <rect x="13" y="18" width="1" height="1"/>
    <rect x="17" y="18" width="2" height="1"/>
    <rect x="17" y="19" width="2" height="1"/>
    <rect x="15" y="20" width="4" height="1"/>
    <rect x="17" y="21" width="1" height="1"/>
  </g>
  <g fill="#54248c"><!-- overlap edge -->
    <rect x="13" y="9" width="2" height="1"/>
    <rect x="13" y="10" width="1" height="1"/>
    <rect x="15" y="10" width="2" height="1"/>
    <rect x="12" y="11" width="1" height="1"/>
    <rect x="17" y="11" width="1" height="1"/>
    <rect x="12" y="12" width="1" height="1"/>
    <rect x="18" y="12" width="1" height="1"/>
    <rect x="12" y="13" width="1" height="1"/>
    <rect x="19" y="13" width="1" height="1"/>
    <rect x="12" y="14" width="1" height="1"/>
    <rect x="19" y="14" width="1" height="1"/>
    <rect x="12" y="15" width="1" height="1"/>
    <rect x="19" y="15" width="1" height="1"/>
    <rect x="12" y="16" width="1" height="1"/>
    <rect x="19" y="16" width="1" height="1"/>
    <rect x="12" y="17" width="1" height="1"/>
    <rect x="19" y="17" width="1" height="1"/>
    <rect x="12" y="18" width="1" height="1"/>
    <rect x="19" y="18" width="1" height="1"/>
    <rect x="13" y="19" width="1" height="1"/>
    <rect x="19" y="19" width="1" height="1"/>
    <rect x="14" y="20" width="1" height="1"/>
    <rect x="19" y="20" width="1" height="1"/>
    <rect x="15" y="21" width="2" height="1"/>
    <rect x="18" y="21" width="1" height="1"/>
    <rect x="17" y="22" width="2" height="1"/>
  </g>
  <g fill="#f0e4ff"><!-- music note -->
    <rect x="16" y="13" width="1" height="1"/>
    <rect x="16" y="14" width="2" height="1"/>
    <rect x="16" y="15" width="1" height="1"/>
    <rect x="18" y="15" width="1" height="1"/>
    <rect x="16" y="16" width="1" height="1"/>
    <rect x="16" y="17" width="1" height="1"/>
    <rect x="14" y="18" width="3" height="1"/>
    <rect x="14" y="19" width="3" height="1"/>
  </g>
  <g fill="#b8b4c4"><!-- sound arcs -->
    <rect x="11" y="2" width="3" height="1"/>
    <rect x="8" y="3" width="3" height="1"/>
    <rect x="6" y="4" width="2" height="1"/>
    <rect x="4" y="5" width="2" height="1"/>
    <rect x="10" y="5" width="3" height="1"/>
    <rect x="3" y="6" width="1" height="1"/>
    <rect x="8" y="6" width="2" height="1"/>
    <rect x="2" y="7" width="1" height="1"/>
    <rect x="6" y="7" width="1" height="1"/>
    <rect x="2" y="8" width="1" height="1"/>
    <rect x="5" y="8" width="1" height="1"/>
    <rect x="26" y="23" width="1" height="1"/>
    <rect x="29" y="23" width="1" height="1"/>
    <rect x="25" y="24" width="1" height="1"/>
    <rect x="29" y="24" width="1" height="1"/>
    <rect x="22" y="25" width="2" height="1"/>
    <rect x="28" y="25" width="1" height="1"/>
    <rect x="19" y="26" width="3" height="1"/>
    <rect x="26" y="26" width="2" height="1"/>
    <rect x="24" y="27" width="2" height="1"/>
    <rect x="21" y="28" width="3" height="1"/>
    <rect x="18" y="29" width="3" height="1"/>
  </g>
</svg>
